<svg version="1.2" xmlns="http://www.w3.org/2000/svg" viewBox="0 0 675 591" width="675" height="591">
	<title>undraw_message_sent_re_q2kl-svg</title>
	<style>
		.s0 { fill: #f2f2f2 } 
		.s1 { fill: #ffb6b6 } 
		.s2 { fill: #2f2e41 } 
		.s3 { fill: #201f1e } 
		.s4 { fill: #e6e6e6 } 
		.s5 { fill: #cccccc } 
		.s6 { fill: #956f81 } 
		.s7 { fill: #3f3d56 } 
		.s8 { fill: #ffffff } 
		.s9 { fill: #e4e4e4 } 
	</style>
	<path id="Layer" class="s0" d="m32.6 201.3l-32.6-18.4q-0.1-7.3 0.6-14.6 0.7-7.3 2.3-14.4 1.6-7.2 4.1-14.1 2.4-6.9 5.7-13.4c7.5 34 47 50.2 65.2 79.9 2.8 4.7 5.1 9.6 6.8 14.8 1.7 5.1 2.8 10.4 3.3 15.8 0.5 5.4 0.4 10.9-0.3 16.2-0.7 5.4-2 10.7-3.9 15.8l2.1 26.4c-8.4-2.5-16.4-5.9-24.1-10.2-7.6-4.2-14.8-9.3-21.4-15.1-6.5-5.8-12.5-12.3-17.6-19.3-5.2-7.1-9.6-14.7-13.1-22.7q-1.5-3.4-2.7-6.9-1.3-3.4-2.3-7-1-3.5-1.8-7.1-0.8-3.6-1.4-7.3c15.2 1.6 31.1 1.6 31.1 1.6z"/>
	<path id="Layer" class="s0" d="m617.5 534.7l1-22.5q3.9-2 8-3.6 4.1-1.6 8.4-2.7 4.2-1.1 8.6-1.6 4.4-0.6 8.8-0.6c-16.3 13.3-14.2 38.8-25.2 56.7q-2.6 4.1-6.1 7.6-3.5 3.5-7.6 6.1-4.2 2.6-8.8 4.2-4.6 1.7-9.5 2.2l-13.6 8.3c-0.9-5.1-1.3-10.4-1.1-15.7 0.2-5.2 1-10.5 2.3-15.5 1.4-5.1 3.2-10.1 5.6-14.8 2.4-4.7 5.3-9.1 8.6-13.1q1.4-1.7 3-3.4 1.5-1.6 3.1-3.1 1.7-1.5 3.4-2.9 1.7-1.4 3.5-2.7c3.2 8.6 7.6 17.1 7.6 17.1z"/>
	<path id="Layer" class="s1" d="m582.5 577.3h-12.3l-5.9-47.5h18.2v47.5z"/>
	<path id="Layer" class="s2" d="m585.6 589.2h-39.6v-0.5c0-2 0.4-4 1.1-5.9 0.8-1.9 2-3.6 3.4-5 1.4-1.4 3.1-2.6 5-3.4 1.9-0.7 3.9-1.1 5.9-1.1l7.2-5.5 13.6 5.5h3.4z"/>
	<path id="Layer" class="s1" d="m525.3 577.3h-12.3l-5.8-47.5h18.2l-0.1 47.5z"/>
	<path id="Layer" class="s2" d="m528.5 589.2h-39.7v-0.5c0-2 0.4-4 1.2-5.9 0.8-1.9 1.9-3.6 3.3-5 1.5-1.4 3.2-2.6 5.1-3.4 1.8-0.7 3.8-1.1 5.9-1.1l7.2-5.5 13.5 5.5h3.5z"/>
	<path id="Layer" class="s3" d="m520 317.9l80 2c15.2 8.3 15.4 26.1 10.5 47.4 0 0 1.7 12.6-1.7 15.9-3.4 3.4-5.1 3.4-3.4 9.3 1.7 5.8-7.2 15.4-6.1 16.5 1.1 1.1 3.6 7 3.6 7l-8.4 47.9c0 0-5.9 83.2-7.6 84.9-1.6 1.6-3.3 0-1.6 4.2 1.6 4.2 3.3 2.5 1.6 4.2q-0.5 0.6-1.1 1.2-0.5 0.6-1 1.2-0.6 0.7-1.1 1.3-0.5 0.6-1 1.3h-20.3c0 0-1.5-8.4-1.5-9.2 0-0.9-1.7-5.9-1.7-6.8 0-0.8 1.5-2.3 1.5-2.3q0.2-0.6 0.4-1.3 0.1-0.6 0.2-1.3 0.2-0.6 0.3-1.3 0.1-0.7 0.1-1.3c0-1.7 5.1-66.4 5.1-66.4l-10.1-84-24.4 82.3c0 0 0 72.3-1.7 74-1.6 1.6-1.6 0.8-0.8 4.2 0.8 3.3 4.2 2.5 1.7 5-2.5 2.5-3.4-1.7-2.5 2.5l0.8 4.2-25.2 0.4c0 0-3.4-7.1-1.7-9.6 1.7-2.5 1.6-1.9-0.5-6-2-4.1-2.8-4.9-2-5.8 0.8-0.8 0.8-5.3 0.8-5.3l4.2-80.4c0 0 0.9-84.9 0.9-87.4q0-0.5 0-1-0.1-0.4-0.2-0.9 0-0.5-0.2-1-0.1-0.4-0.3-0.9v-3.4l3.2-12.1z"/>
	<path id="Layer" class="s1" d="m568.1 151.6c-13.8 0-24.9-11.1-24.9-24.9 0-13.7 11.1-24.8 24.9-24.8 13.7 0 24.8 11.1 24.8 24.8 0 13.8-11.1 24.9-24.8 24.9z"/>
	<path id="Layer" class="s4" d="m555.7 168c-5.4 3.2-8.6 9-10.4 15q-1.3 4.1-2.3 8.3-1.1 4.2-1.8 8.5-0.8 4.2-1.3 8.5-0.5 4.3-0.7 8.6l-2 34.5-24 73.4c20.8 17.6 99.2 4 99.2 4 0 0 2.4-0.8 0-3.2-2.4-2.4-4.8-0.3-2.4-2.7 2.4-2.4 0.8 0.3 0-2.1-0.8-2.4 0-0.8 0.8-1.6 0.8-0.8-6.2-8-6.2-8l6.4-42.2 8-85c-9.6-12-29-19.1-29-19.1l-5-9-25 2z"/>
	<path id="Layer" class="s2" d="m552.2 112.1q0.4 0 0.8 0.1 0.3 0 0.7 0 0.3 0.1 0.7 0.2 0.3 0 0.7 0.1 0.7 0.2 1.4 0.3 0.7 0.2 1.4 0.3 0.7 0.1 1.4 0.2 0.7 0.1 1.4 0.1c2.8 0.3 5.6 1.1 8.2 2.2 2.6 1.2 5 2.8 7.1 4.8 2.1 2 3.9 4.3 5.2 6.8 1.3 2.6 2.2 5.3 2.6 8.2 1.5-1.3 4.8-3.6 7.4-1.4 0.1 0 0.1 0 0.2 0 1.8-0.9 5-11.3 5.1-20.5 0-4.9-0.8-11.1-4.7-13.1l-0.2-0.1-0.1-0.3c-0.2-1.1-3.2-2.9-8.3-4.4-9.3-2.6-23.2-7.8-31-0.2-0.6 2.6-2.5 8-4.5 8.7-2.1 0.7-4 1.3-4.3 3.9q0 1.4-0.1 2.8 0 1.4 0 2.8 0 1.4 0 2.9 0.1 1.4 0.2 2.8 0.3-0.9 0.7-1.7 0.4-0.8 0.9-1.5 0.5-0.8 1.1-1.4 0.7-0.6 1.4-1.2 0.5-0.3 1.1-0.6 0.5-0.3 1.1-0.4 0.6-0.2 1.2-0.3 0.6-0.1 1.2-0.1z"/>
	<path id="Layer" class="s1" d="m506 249.5l40.6-26-20.5-27.2-20.2 24.8-62.9 3.9c-3.4-3.4-8.4-4.4-12.8-2.6-4.4 1.7-7.4 5.9-7.6 10.7-0.2 4.7 2.5 9.1 6.7 11.2 4.3 2.1 9.4 1.4 13-1.6z"/>
	<path id="Layer" class="s4" d="m584.3 187.2c2.3 14.2-42.2 41.5-42.2 41.5 0-3.4-26.5 21.9-27.7 19.1-3.4-7.9-5.8-26.6-10.6-29.5-2.7-1.8 16.4-17.8 16.4-17.8 0 0 10-10.1 23.1-22.8q2.8-2.8 6.1-4.8 3.3-1.9 7.1-3 3.7-1.1 7.6-1.2 3.8-0.2 7.6 0.7c2.5 0.5 10.2 3.5 12.6 17.8z"/>
	<path id="Layer" class="s1" d="m668 256.3l-26.9-40-26.7 21 25.2 19.6 5.2 62.9c-3.3 3.4-4.2 8.5-2.3 12.9 1.8 4.3 6.1 7.2 10.8 7.3 4.8 0.1 9.1-2.6 11.1-7 2-4.3 1.2-9.4-1.9-12.9z"/>
	<path id="Layer" class="s4" d="m604 179.4c14.2-2.7 42.4 41.2 42.4 41.2-3.4 0.1 22.5 26.1 19.7 27.4-7.8 3.5-26.4 6.3-29.3 11.2-1.7 2.7-18.1-16.1-18.1-16.1 0 0-10.3-9.8-23.3-22.6q-2.8-2.7-4.9-6-2-3.3-3.2-7-1.2-3.7-1.4-7.6-0.2-3.8 0.6-7.6c0.5-2.6 3.3-10.3 17.5-12.9z"/>
	<path id="Layer" class="s5" d="m674.8 589.4q0 0.2-0.1 0.5-0.1 0.2-0.2 0.4-0.2 0.1-0.4 0.2-0.2 0.1-0.5 0.1h-280.3c-0.3 0-0.6-0.1-0.8-0.3-0.2-0.3-0.4-0.6-0.4-0.9 0-0.3 0.2-0.6 0.4-0.8 0.2-0.3 0.5-0.4 0.8-0.4h280.3q0.3 0 0.5 0.1 0.2 0.1 0.4 0.3 0.1 0.1 0.2 0.4 0.1 0.2 0.1 0.4z"/>
	<path id="Layer" class="s6" d="m415.2 228.8h-340.2c-2.6 0-5.2 0.5-7.7 1.5-2.4 1-4.6 2.5-6.5 4.4-1.8 1.8-3.3 4-4.3 6.5-1 2.4-1.6 5-1.6 7.6v211.8c0 2.7 0.6 5.3 1.6 7.7 1 2.4 2.5 4.6 4.3 6.5 1.9 1.9 4.1 3.3 6.5 4.3 2.5 1 5.1 1.6 7.7 1.6h340.2c2.6 0 5.2-0.6 7.6-1.6 2.5-1 4.7-2.4 6.5-4.3 1.9-1.9 3.4-4.1 4.4-6.5 1-2.4 1.5-5 1.5-7.7v-211.8c0-2.6-0.5-5.2-1.5-7.6-1-2.5-2.5-4.7-4.4-6.5-1.8-1.9-4-3.4-6.5-4.4-2.4-1-5-1.5-7.6-1.5z"/>
	<path id="Layer" fill-rule="evenodd" class="s3" d="m422.8 230.3c2.5 1 4.7 2.5 6.5 4.4 1.9 1.8 3.4 4 4.4 6.5 1 2.4 1.5 5 1.5 7.6v211.8c0 2.7-0.5 5.3-1.5 7.7-1 2.4-2.5 4.6-4.4 6.5-1.8 1.9-4 3.3-6.5 4.3-2.4 1-5 1.6-7.6 1.6h-340.2c-2.6 0-5.2-0.6-7.7-1.6-2.4-1-4.6-2.4-6.5-4.3-1.8-1.9-3.3-4.1-4.3-6.5-1-2.4-1.6-5-1.6-7.7v-211.8c0-2.6 0.6-5.2 1.6-7.6 1-2.5 2.5-4.7 4.3-6.5 1.9-1.9 4.1-3.4 6.5-4.4 2.5-1 5.1-1.5 7.7-1.5h340.2c2.6 0 5.2 0.5 7.6 1.5zm-1.1 18.5q0-1.3-0.5-2.5-0.5-1.2-1.4-2.1-0.9-0.9-2.1-1.4-1.2-0.5-2.6-0.5h-340.1q-1.3 0-2.5 0.5-1.2 0.5-2.2 1.4-0.9 0.9-1.4 2.1-0.5 1.2-0.5 2.6v194.6c0 2.4 0.5 4.8 1.4 7.1 0.9 2.2 2.3 4.2 4 6 1.7 1.7 3.7 3.1 5.9 4 2.2 1 4.6 1.5 7 1.5 37 0.6 136.3 1.5 231.5 1.5 41.6 0-12-0.1 22.5-0.6 10.7-0.2 21.2-2.4 31.1-6.6 9.8-4.2 18.7-10.3 26.2-17.9 7.5-7.6 13.4-16.6 17.5-26.5 4.1-9.8 6.2-20.4 6.2-31.1z"/>
	<path id="Layer" class="s3" d="m373.3 106.8h-259.2q-1.7 0-3.3 0.6-1.7 0.5-3.1 1.5-1.4 1-2.4 2.3-1.1 1.4-1.7 3l-40 112.3c-0.6 1.7-0.8 3.5-0.5 5.3 0.2 1.7 0.9 3.4 1.9 4.9 1 1.4 2.4 2.6 4 3.4 1.5 0.8 3.3 1.3 5.1 1.3l347.6 0.6c1.8 0 3.6-0.5 5.3-1.3 1.6-0.9 2.9-2.2 4-3.7 1-1.5 1.6-3.3 1.8-5.1 0.1-1.9-0.2-3.7-0.9-5.4l-0.6 0.3 0.6-0.3-48.4-112.9q-0.6-1.5-1.7-2.8-1-1.2-2.4-2.1-1.4-0.9-2.9-1.4-1.6-0.5-3.2-0.5z"/>
	<path id="Layer" class="s3" d="m432.8 228.9q0 0.6-0.1 1.2 0 0.5-0.1 1.1-0.1 0.5-0.3 1.1-0.2 0.5-0.4 1l-48.4 86.9q-0.6 1.5-1.7 2.8-1 1.2-2.4 2.1-1.4 0.9-2.9 1.4-1.6 0.5-3.2 0.5h-259.2q-1.7 0-3.3-0.6-1.7-0.5-3.1-1.5-1.4-1-2.4-2.3-1.1-1.4-1.7-3l-40-86.3c-0.5-1.4-0.7-2.9-0.6-4.3 0.1-1.5 0.4-2.9 1-4.2 0.7-1.3 1.6-2.5 2.6-3.5 1.1-1 2.4-1.7 3.8-2.2q0.4-0.2 0.9-0.3 0.4-0.1 0.9-0.2 0.5-0.1 0.9-0.1 0.5-0.1 1-0.1h42.4l17.4-0.1 228-0.4h17.3l42.5-0.1c1.4 0 2.9 0.3 4.2 0.9 1.4 0.5 2.6 1.3 3.6 2.4 1.1 1 1.9 2.2 2.5 3.6 0.5 1.3 0.8 2.8 0.8 4.2z"/>
	<path id="Layer" class="s7" d="m100.5 387.7c5.1 0 75.7 4.3 75.7 9.4 0 5.1-70.6 9.2-75.7 9.2-2.5 0-4.8-1-6.6-2.8-1.7-1.7-2.7-4.1-2.7-6.5 0-2.5 1-4.9 2.7-6.6 1.8-1.8 4.1-2.7 6.6-2.7z"/>
	<path id="Layer" class="s4" d="m357.1 38.5h-218.5c-2.9 0-5.8 0.6-8.4 1.7-2.7 1.1-5.1 2.7-7.2 4.8-2 2-3.7 4.5-4.8 7.2-1.1 2.6-1.7 5.5-1.7 8.4v266.4h256.8q0.8 0 1.6-0.1 0.7-0.2 1.5-0.4 0.7-0.2 1.5-0.5 0.7-0.3 1.3-0.8v-264.6c0-2.9-0.5-5.8-1.7-8.4-1.1-2.7-2.7-5.2-4.7-7.2-2.1-2.1-4.5-3.7-7.2-4.8-2.7-1.1-5.6-1.7-8.5-1.7z"/>
	<path id="Layer" class="s8" d="m273.7 56.4h-119.7c-2.7 0-5.3 0.6-7.7 1.6-2.5 1-4.7 2.5-6.5 4.3-1.9 1.9-3.4 4.1-4.4 6.5-1 2.5-1.5 5.1-1.5 7.7v250.5h228v-182.4c0-11.6-2.3-23-6.7-33.7-4.5-10.7-11-20.4-19.2-28.6-8.1-8.2-17.9-14.7-28.5-19.1-10.7-4.5-22.2-6.8-33.8-6.8z"/>
	<path id="Layer" class="s9" d="m323 304.7h-150.3c-1.3 0-2.5 0.5-3.5 1.5-0.9 0.9-1.4 2.1-1.4 3.4 0 1.3 0.5 2.6 1.4 3.5 1 0.9 2.2 1.4 3.5 1.4h150.3c1.3 0 2.6-0.5 3.5-1.4 0.9-0.9 1.4-2.2 1.4-3.5 0-1.3-0.5-2.5-1.4-3.4-0.9-1-2.2-1.5-3.5-1.5z"/>
	<path id="Layer" class="s9" d="m323 285.3h-150.3c-1.3 0-2.5 0.6-3.5 1.5-0.9 0.9-1.4 2.1-1.4 3.4 0 1.3 0.5 2.6 1.4 3.5 1 0.9 2.2 1.5 3.5 1.5h150.3c1.3 0 2.6-0.6 3.5-1.5 0.9-0.9 1.5-2.2 1.5-3.5 0-1.3-0.6-2.5-1.5-3.4-0.9-0.9-2.2-1.5-3.5-1.5z"/>
	<path id="Layer" class="s9" d="m237.9 266h-65.2c-1.3 0-2.5 0.5-3.5 1.4-0.9 0.9-1.4 2.2-1.4 3.5 0 1.3 0.5 2.5 1.4 3.4 1 1 2.2 1.5 3.5 1.5h65.2c1.3 0 2.5-0.5 3.4-1.5 1-0.9 1.5-2.1 1.5-3.4 0-1.3-0.5-2.6-1.5-3.5-0.9-0.9-2.1-1.4-3.4-1.4z"/>
	<path id="Layer" class="s9" d="m323 225.4h-150.3c-1.3 0-2.5 0.5-3.5 1.4-0.9 0.9-1.4 2.2-1.4 3.5 0 1.3 0.5 2.5 1.4 3.5 1 0.9 2.2 1.4 3.5 1.4h150.3c1.3 0 2.6-0.5 3.5-1.4 0.9-1 1.5-2.2 1.5-3.5 0-1.3-0.6-2.6-1.5-3.5-0.9-0.9-2.2-1.4-3.5-1.4z"/>
	<path id="Layer" class="s9" d="m323 206h-150.3c-1.3 0-2.5 0.5-3.5 1.5-0.9 0.9-1.4 2.1-1.4 3.4 0 1.3 0.5 2.6 1.4 3.5 1 0.9 2.2 1.4 3.5 1.4h150.3c1.3 0 2.6-0.5 3.5-1.4 0.9-0.9 1.4-2.2 1.4-3.5 0-1.3-0.5-2.5-1.4-3.4-0.9-1-2.2-1.5-3.5-1.5z"/>
	<path id="Layer" class="s9" d="m237.9 186.6h-65.2c-1.3 0-2.5 0.6-3.5 1.5-0.9 0.9-1.4 2.1-1.4 3.4 0 1.3 0.5 2.6 1.4 3.5 1 0.9 2.2 1.5 3.5 1.5h65.2c1.3 0 2.5-0.6 3.4-1.5 1-0.9 1.5-2.2 1.5-3.5 0-1.3-0.5-2.5-1.5-3.4-0.9-0.9-2.1-1.5-3.4-1.5z"/>
	<path id="Layer" class="s6" d="m323 146.1h-150.3c-1.3 0-2.5 0.5-3.5 1.4-0.9 0.9-1.4 2.2-1.4 3.5 0 1.3 0.5 2.5 1.4 3.4 1 1 2.2 1.5 3.5 1.5h150.3c1.3 0 2.6-0.5 3.5-1.5 0.9-0.9 1.5-2.1 1.5-3.4 0-1.3-0.6-2.6-1.5-3.5-0.9-0.9-2.2-1.4-3.5-1.4z"/>
	<path id="Layer" class="s6" d="m323 126.7h-150.3c-1.3 0-2.5 0.5-3.5 1.4-0.9 0.9-1.4 2.2-1.4 3.5 0 1.3 0.5 2.5 1.4 3.5 1 0.9 2.2 1.4 3.5 1.4h150.3c1.3 0 2.6-0.5 3.5-1.4 0.9-1 1.5-2.2 1.5-3.5 0-1.3-0.6-2.6-1.5-3.5-0.9-0.9-2.2-1.4-3.5-1.4z"/>
	<path id="Layer" class="s6" d="m237.9 107.3h-65.2c-1.3 0-2.5 0.5-3.5 1.4-0.9 1-1.4 2.2-1.4 3.5 0 1.3 0.5 2.6 1.4 3.5 1 0.9 2.2 1.4 3.5 1.4h65.2c1.3 0 2.5-0.5 3.4-1.4 1-0.9 1.5-2.2 1.5-3.5 0-1.3-0.5-2.5-1.5-3.5-0.9-0.9-2.1-1.4-3.4-1.4z"/>
	<path id="Layer" class="s6" d="m371 76.3c-21.1 0-38.1-17-38.1-38.1 0-21.1 17-38.2 38.1-38.2 21.1 0 38.2 17.1 38.2 38.2 0 21.1-17.1 38.1-38.2 38.1z"/>
	<path id="Layer" class="s8" d="m365.8 58q-0.5 0-0.9-0.1-0.5-0.1-1-0.3-0.4-0.2-0.8-0.6-0.4-0.3-0.7-0.7l-10.4-13.9c-0.6-0.9-0.9-2-0.8-3.1 0.2-1.1 0.8-2.1 1.7-2.8 0.9-0.7 2-1 3.1-0.8 1.1 0.1 2.1 0.7 2.8 1.7l6.8 9 17.5-26.2c0.7-0.9 1.6-1.6 2.7-1.8 1.1-0.2 2.3 0 3.2 0.6 1 0.6 1.6 1.6 1.8 2.7 0.2 1.1 0 2.3-0.6 3.2l-20.8 31.2q-0.3 0.5-0.7 0.8-0.4 0.3-0.8 0.6-0.5 0.2-0.9 0.4-0.5 0.1-1 0.1-0.1 0-0.2 0z"/>
</svg>